# xmcd
#
# Track frame offsets:
#	150
#	16146
#	26636
#	40127
#	55693
#	69963
#	86087
#	100742
#	112409
#	123808
#	133373
#	144606
#	163032
#	178900
#	189665
#	208272
#	230152
#	240429
#	251134
#	264918
#	283656
#	294171
#
# Disc length: 4034 seconds
#
# Revision: 1
# Processed by: cddbd v1.5.2PL0 Copyright (c) Steve Scherf et al.
# Submitted via: audiograbber 1.83.01
#
DISCID=490fc016
DTITLE=Diversi - Bun ii vinu' ... mult imi place
DYEAR=2005
DGENRE=Folklore
TTITLE0=Bun ii vinu' ... mult imi place - Laura Lavric
TTITLE1=Haideti feciorasi la joc - Sofia Vicoveanca
TTITLE2=Canta-mi, canta-mi vioara - Nelu Ploiesteanu
TTITLE3=S-am sa beu de suparare - Margareta Clipa
TTITLE4=Hai, sus paharul - Diana Saracino
TTITLE5=Canta-mi lautar pe strune - Vasilica Dinu
TTITLE6=Fir-ar el de paharel - Diana Saracino
TTITLE7=Cand ma duc la hora-n sat - Gheorghe Rosoga
TTITLE8=Hai noroc ca azi oi bea - Margareta Clipa
TTITLE9=Paharut facut de rus - Zinaida Bolboceanu
TTITLE10=Hai la hora mare - Sofia Vicoveanca
TTITLE11=Vin pe Dunare de-ar curge - Diana Saracino
TTITLE12=Unii spun ca vinu-i bun - Nelu Ploiesteanu
TTITLE13=La crasma lui Costanel - Laura Lavric
TTITLE14=Paharel de la Cotnari - Margareta Clipa
TTITLE15=Pelin, pelinas de vara - Melos
TTITLE16=Hora Moldoveneasca - Constantin Mandristeanu
TTITLE17=Hai sa bem - Diana Saracino
TTITLE18=Ada, mai crasmare, vin - Polina Manoila
TTITLE19=Daca beau ii treaba mea - Sofia Vicoveanca
TTITLE20=Bun gasit la masa mare - Sofia Vicoveanca
TTITLE21=Cantec de pahar - Melos
EXTD=Artisti: Sofia Vicoveanca, Nelu Ploiesteanu, Laura Lavric, Gheorghe Rosoga
EXTD=, Constantin Mandristeanu, Margareta Clipa, Vasilica Dinu si Diana Saracin
EXTD=o.\n\nCD realizat cu sprijinul Cotnari
EXTT0=
EXTT1=
EXTT2=
EXTT3=
EXTT4=
EXTT5=
EXTT6=
EXTT7=
EXTT8=
EXTT9=
EXTT10=
EXTT11=
EXTT12=
EXTT13=
EXTT14=
EXTT15=
EXTT16=
EXTT17=
EXTT18=
EXTT19=
EXTT20=
EXTT21=
PLAYORDER=
